<svg width="12" height="13" viewBox="0 0 12 13" fill="none" xmlns="http://www.w3.org/2000/svg">
<path fill-rule="evenodd" clip-rule="evenodd" d="M9.24826 8.66975L11.9144 11.3955C12.0335 11.5307 12.0276 11.7377 11.9011 11.8657L11.4345 12.3427C11.3719 12.4072 11.2868 12.4435 11.1979 12.4435C11.109 12.4435 11.0238 12.4072 10.9613 12.3427L8.29511 9.61695C8.22136 9.5415 8.15444 9.45939 8.09514 9.37163L7.59524 8.6902C6.7681 9.36546 5.74095 9.73311 4.68245 9.7328C2.50127 9.74054 0.6059 8.20229 0.118463 6.02874C-0.368974 3.85519 0.681608 1.62643 2.64823 0.66195C4.61486 -0.302533 6.97267 0.254668 8.32576 2.00367C9.67886 3.75268 9.66613 6.22671 8.29511 7.96106L8.96165 8.43125C9.06574 8.49936 9.1619 8.57938 9.24826 8.66975ZM1.3498 4.96257C1.3498 6.84431 2.84191 8.36975 4.68251 8.36975C5.5664 8.36975 6.41409 8.01078 7.03909 7.37181C7.66409 6.73284 8.01522 5.86621 8.01522 4.96257C8.01522 3.08083 6.52311 1.55538 4.68251 1.55538C2.84191 1.55538 1.3498 3.08083 1.3498 4.96257Z" fill="#707070"/>
</svg>
