<svg width="6" height="10" viewBox="0 0 6 10" fill="none" xmlns="http://www.w3.org/2000/svg">
<path d="M5.58426 9.03939C5.63159 9.08632 5.6582 9.15021 5.6582 9.21686C5.6582 9.28351 5.63159 9.3474 5.58426 9.39433L5.05435 9.92425C5.00899 9.97258 4.94565 10 4.87937 10C4.81309 10 4.74976 9.97258 4.7044 9.92425L0.110096 5.32995C0.0397605 5.2597 0.000200694 5.1644 0.000113442 5.06499L0.000113453 4.93501C0.000200723 4.8356 0.0397606 4.7403 0.110096 4.67005L4.7044 0.0757474C4.74976 0.0274161 4.81309 -7.38822e-08 4.87937 -6.80876e-08C4.94566 -6.2293e-08 5.00899 0.0274162 5.05435 0.0757474L5.58427 0.605667C5.63159 0.652601 5.6582 0.716492 5.6582 0.78314C5.6582 0.84979 5.63159 0.913679 5.58427 0.960613L1.54488 5L5.58426 9.03939Z" fill="#D8D8D8"/>
</svg>
